<svg width="98" height="20" viewBox="0 0 98 20" fill="none" xmlns="http://www.w3.org/2000/svg">
<path d="M3.96412 0H9.60253L5.61378 20H0L3.96412 0Z" fill="url(#paint0_linear_1940_6386)"/>
<path d="M12.9746 0H18.5884L14.6242 20H9.01042L12.9746 0Z" fill="url(#paint1_linear_1940_6386)"/>
<path d="M21.9622 0H27.5759L23.6118 20H17.9981L21.9622 0Z" fill="url(#paint2_linear_1940_6386)"/>
<path d="M45.4731 11.1028C44.5129 12.4163 43.1587 13.3829 41.4105 14.0024L44.7838 20H38.8991L35.9445 14.6964H33.113L32.0542 20H26.4404L30.4292 0H38.8991C41.4352 0 43.4049 0.570012 44.8083 1.68525C46.2118 2.80049 46.9012 4.36183 46.9012 6.36926C46.9012 8.20321 46.4334 9.76454 45.4731 11.1028ZM40.4257 5.08054C39.884 4.65922 39.1207 4.46096 38.1358 4.46096H35.1812L33.9747 10.3098H37.3234C38.5791 10.3098 39.5393 10.0124 40.2287 9.41758C40.9181 8.82279 41.2382 7.98017 41.2382 6.91449C41.2382 6.09665 40.9673 5.47707 40.4257 5.08054Z" fill="black"/>
<path d="M51.4324 0H57.0462L53.0821 20H47.4683L51.4324 0Z" fill="black"/>
<path d="M75.4122 1.68525C76.8156 2.80049 77.505 4.38661 77.505 6.41882C77.505 8.10408 77.1111 9.56628 76.2985 10.8054C75.486 12.0693 74.3535 13.0359 72.8761 13.7298C71.3988 14.4238 69.6753 14.746 67.7055 14.746H63.7414L62.7319 19.9752H57.1181L61.033 0H69.429C72.0144 0 74.0087 0.570012 75.4122 1.68525ZM70.8078 9.41758C71.4726 8.82279 71.8174 7.98017 71.8174 6.91449C71.8174 6.09665 71.5466 5.47707 71.0048 5.08054C70.4632 4.65922 69.6998 4.46096 68.6904 4.46096H65.7358L64.5785 10.3098H67.9271C69.1828 10.3098 70.1431 10.0124 70.8078 9.41758Z" fill="black"/>
<path d="M86.3217 4.36183L85.6815 7.73234H94.4961L93.6835 11.9702H84.8197L84.1057 15.6133H94.5207L93.6097 19.9752H77.6793L81.668 0H97.2291L96.3427 4.36183H86.3217Z" fill="black"/>
<defs>
<linearGradient id="paint0_linear_1940_6386" x1="48.5735" y1="19.9931" x2="48.5735" y2="0" gradientUnits="userSpaceOnUse">
<stop stop-color="#FCEC00"/>
<stop offset="1" stop-color="#3DAC37"/>
</linearGradient>
<linearGradient id="paint1_linear_1940_6386" x1="48.5736" y1="19.9931" x2="48.5736" y2="0" gradientUnits="userSpaceOnUse">
<stop stop-color="#FCEC00"/>
<stop offset="1" stop-color="#3DAC37"/>
</linearGradient>
<linearGradient id="paint2_linear_1940_6386" x1="48.5742" y1="19.9931" x2="48.5742" y2="0" gradientUnits="userSpaceOnUse">
<stop stop-color="#FCEC00"/>
<stop offset="1" stop-color="#3DAC37"/>
</linearGradient>
</defs>
</svg>
