<svg width="94" height="40" viewBox="0 0 94 40" fill="none" xmlns="http://www.w3.org/2000/svg">
<path d="M7.92824 0H19.2051L11.2276 40H0L7.92824 0Z" fill="url(#paint0_linear_1949_120)"/>
<path d="M25.9491 0H37.1767L29.2484 40H18.0208L25.9491 0Z" fill="url(#paint1_linear_1949_120)"/>
<path d="M43.9244 0H55.1518L47.2237 40H35.9961L43.9244 0Z" fill="url(#paint2_linear_1949_120)"/>
<path d="M90.9463 22.2057C89.0257 24.8327 86.3174 26.7658 82.821 28.0048L89.5676 40H77.7981L71.8889 29.3928H66.226L64.1084 40H52.8808L60.8584 0H77.7981C82.8703 0 86.8097 1.14002 89.6166 3.37051C92.4235 5.60099 93.8024 8.72366 93.8024 12.7385C93.8024 16.4064 92.8668 19.5291 90.9463 22.2057ZM80.8514 10.1611C79.768 9.31845 78.2414 8.92192 76.2716 8.92192H70.3624L67.9495 20.6195H74.6467C77.1582 20.6195 79.0785 20.0248 80.4574 18.8352C81.8361 17.6456 82.4763 15.9603 82.4763 13.829C82.4763 12.1933 81.9347 10.9541 80.8514 10.1611Z" fill="black"/>
<defs>
<linearGradient id="paint0_linear_1949_120" x1="46.8617" y1="39.9862" x2="46.8617" y2="0" gradientUnits="userSpaceOnUse">
<stop stop-color="#FCEC00"/>
<stop offset="1" stop-color="#3DAC37"/>
</linearGradient>
<linearGradient id="paint1_linear_1949_120" x1="46.8617" y1="39.9862" x2="46.8617" y2="0" gradientUnits="userSpaceOnUse">
<stop stop-color="#FCEC00"/>
<stop offset="1" stop-color="#3DAC37"/>
</linearGradient>
<linearGradient id="paint2_linear_1949_120" x1="46.8623" y1="39.9862" x2="46.8623" y2="0" gradientUnits="userSpaceOnUse">
<stop stop-color="#FCEC00"/>
<stop offset="1" stop-color="#3DAC37"/>
</linearGradient>
</defs>
</svg>
