<svg width="33" height="20" viewBox="0 0 33 20" fill="none" xmlns="http://www.w3.org/2000/svg">
<path d="M6.38741 12.7275L0.197411 18.9338C0.110207 19.0212 0.050878 19.1326 0.0269164 19.2538C0.00295479 19.3749 0.0154348 19.5005 0.0627805 19.6146C0.110126 19.7287 0.190215 19.8262 0.292933 19.8948C0.395651 19.9634 0.516392 20 0.639911 20H7.41616C7.50068 20.0002 7.58436 19.9832 7.66214 19.9501C7.73991 19.917 7.81017 19.8685 7.86866 19.8075L14.5937 12.7775C14.6256 12.7441 14.6537 12.7072 14.6774 12.6675C15.9162 10.5963 15.8587 9.43001 14.6774 7.43251C14.654 7.39334 14.6263 7.35687 14.5949 7.32376L7.86991 0.196256C7.81117 0.133947 7.74024 0.0843748 7.66154 0.0506156C7.58284 0.0168563 7.49805 -0.000369864 7.41241 6.02147e-06H0.624911C0.501838 2.36004e-05 0.381509 0.0363772 0.279013 0.104508C0.176518 0.172639 0.0964195 0.269514 0.0487614 0.382986C0.0011034 0.496457 -0.0119923 0.621474 0.0111164 0.742358C0.0342251 0.863243 0.0925096 0.974614 0.178661 1.06251L6.38741 7.37501C8.60491 9.47376 8.64491 10.6275 6.38741 12.7275ZM26.3712 12.7275L32.6487 18.93C32.737 19.0171 32.7974 19.1286 32.8222 19.2502C32.847 19.3717 32.835 19.4979 32.7878 19.6127C32.7406 19.7275 32.6604 19.8256 32.5572 19.8945C32.4541 19.9635 32.3327 20.0002 32.2087 20H25.3187C25.2352 19.9998 25.1525 19.9829 25.0757 19.9503C24.9988 19.9177 24.9293 19.87 24.8712 19.81L18.0424 12.7763C18.0106 12.7432 17.9825 12.7067 17.9587 12.6675C16.7012 10.5963 16.7587 9.43001 17.9587 7.43251C17.9825 7.39328 18.0106 7.35681 18.0424 7.32376L24.8699 0.192506C24.9284 0.13149 24.9987 0.0829708 25.0764 0.0498836C25.1542 0.0167964 25.2379 -0.000171507 25.3224 6.02147e-06H32.2237C32.3472 3.2184e-05 32.4679 0.0366574 32.5706 0.105257C32.6734 0.173856 32.7534 0.271354 32.8008 0.385439C32.8481 0.499523 32.8606 0.625078 32.8367 0.746251C32.8127 0.867423 32.7534 0.978779 32.6662 1.06626L26.3699 7.37501C24.1199 9.47376 24.0799 10.6288 26.3699 12.7288L26.3712 12.7275Z" fill="black"/>
</svg>
