<svg width="130" height="20" viewBox="0 0 130 20" fill="none" xmlns="http://www.w3.org/2000/svg">
<g clip-path="url(#clip0_1997_200)">
<path d="M7.25377 12.7275L1.06377 18.9338C0.97657 19.0212 0.917242 19.1326 0.89328 19.2538C0.869318 19.3749 0.881798 19.5005 0.929144 19.6146C0.97649 19.7287 1.05658 19.8262 1.1593 19.8948C1.26201 19.9634 1.38276 20 1.50627 20H8.28252C8.36705 20.0002 8.45073 19.9832 8.5285 19.9501C8.60628 19.917 8.67654 19.8685 8.73502 19.8075L15.46 12.7775C15.492 12.7441 15.5201 12.7072 15.5438 12.6675C16.7825 10.5963 16.725 9.43001 15.5438 7.43251C15.5204 7.39334 15.4927 7.35687 15.4613 7.32376L8.73627 0.196256C8.67753 0.133947 8.60661 0.0843748 8.52791 0.0506156C8.44921 0.0168563 8.36441 -0.000369864 8.27877 6.02147e-06H1.49127C1.3682 2.36004e-05 1.24787 0.0363772 1.14538 0.104508C1.04288 0.172639 0.962783 0.269514 0.915125 0.382986C0.867467 0.496457 0.854371 0.621474 0.87748 0.742358C0.900589 0.863243 0.958873 0.974614 1.04502 1.06251L7.25377 7.37501C9.47127 9.47376 9.51127 10.6275 7.25377 12.7275ZM27.2375 12.7275L33.515 18.93C33.6034 19.0171 33.6638 19.1286 33.6886 19.2502C33.7134 19.3717 33.7014 19.4979 33.6542 19.6127C33.607 19.7275 33.5267 19.8256 33.4236 19.8945C33.3204 19.9635 33.1991 20.0002 33.075 20H26.185C26.1015 19.9998 26.0189 19.9829 25.942 19.9503C25.8652 19.9177 25.7956 19.87 25.7375 19.81L18.9088 12.7763C18.8769 12.7432 18.8489 12.7067 18.825 12.6675C17.5675 10.5963 17.625 9.43001 18.825 7.43251C18.8488 7.39328 18.8769 7.35681 18.9088 7.32376L25.7363 0.192506C25.7948 0.13149 25.865 0.0829708 25.9428 0.0498836C26.0206 0.0167964 26.1043 -0.000171507 26.1888 6.02147e-06H33.09C33.2135 3.2184e-05 33.3343 0.0366574 33.437 0.105257C33.5397 0.173856 33.6198 0.271354 33.6672 0.385439C33.7145 0.499523 33.727 0.625078 33.703 0.746251C33.6791 0.867423 33.6197 0.978779 33.5325 1.06626L27.2363 7.37501C24.9863 9.47376 24.9463 10.6288 27.2363 12.7288L27.2375 12.7275ZM72.275 17.5C70.815 17.5 69.5538 17.1975 68.4925 16.5925C67.4427 15.9875 66.5948 15.0861 66.055 14.0013C65.4863 12.8788 65.2025 11.5575 65.2025 10.0388C65.2025 8.54376 65.4863 7.23251 66.055 6.10376C66.63 4.96876 67.4338 4.08626 68.4638 3.45501C69.4938 2.81751 70.7038 2.50001 72.095 2.50001C72.9607 2.49455 73.8205 2.64181 74.635 2.93501C75.4388 3.21876 76.1463 3.66001 76.76 4.26001C77.3788 4.85876 77.865 5.62126 78.22 6.54751C78.5738 7.46876 78.75 8.56501 78.75 9.83876V10.8888H66.8138V8.58126H75.46C75.4657 7.9717 75.3196 7.37031 75.035 6.83126C74.7664 6.32431 74.3622 5.90195 73.8675 5.61126C73.375 5.31501 72.8 5.16751 72.1425 5.16751C71.44 5.16751 70.8238 5.33751 70.2925 5.67751C69.7625 6.01251 69.3488 6.45251 69.0513 7.00251C68.76 7.54376 68.6125 8.14001 68.6063 8.79001V10.8038C68.6063 11.6488 68.76 12.3738 69.07 12.9788C69.38 13.5788 69.8125 14.0388 70.37 14.36C70.925 14.675 71.5763 14.8325 72.3225 14.8325C72.8225 14.8325 73.2725 14.7638 73.6775 14.625C74.0825 14.48 74.4338 14.2688 74.73 13.9913C75.0275 13.7138 75.2525 13.37 75.4038 12.96L78.6075 13.32C78.4163 14.1437 78.0183 14.9052 77.4513 15.5325C76.8888 16.1575 76.1688 16.6425 75.2888 16.9888C74.4113 17.33 73.4063 17.5 72.275 17.5ZM116.128 12.045L112.759 17.1113C112.734 17.1489 112.719 17.1926 112.717 17.2378C112.715 17.2829 112.725 17.3278 112.746 17.3677C112.767 17.4076 112.799 17.441 112.838 17.4643C112.877 17.4876 112.921 17.4999 112.966 17.5H116.638C116.68 17.5001 116.721 17.4897 116.758 17.4696C116.795 17.4495 116.826 17.4204 116.849 17.385L120.241 12.065C120.25 12.052 120.257 12.0381 120.263 12.0238C120.895 10.4475 120.865 9.57126 120.263 8.05126C120.257 8.03735 120.25 8.02396 120.243 8.01126L116.849 2.61751C116.826 2.58148 116.795 2.55178 116.758 2.53122C116.721 2.51067 116.679 2.49992 116.636 2.50001H112.963C112.917 2.50001 112.873 2.51224 112.834 2.53538C112.796 2.55851 112.764 2.59171 112.742 2.63144C112.721 2.67117 112.711 2.71595 112.713 2.76103C112.715 2.80611 112.729 2.84982 112.754 2.88751L116.128 8.03001C117.236 9.60501 117.255 10.4713 116.128 12.045ZM126.119 12.045L129.535 17.11C129.56 17.1475 129.575 17.1913 129.578 17.2365C129.58 17.2818 129.57 17.3268 129.549 17.3669C129.528 17.4069 129.496 17.4405 129.457 17.4639C129.419 17.4874 129.374 17.4998 129.329 17.5H125.596C125.555 17.5001 125.513 17.4897 125.477 17.4698C125.44 17.45 125.409 17.4212 125.386 17.3863L121.944 12.065C121.935 12.052 121.927 12.0382 121.921 12.0238C121.28 10.4475 121.31 9.57126 121.921 8.05251C121.927 8.03813 121.934 8.02432 121.943 8.01126L125.388 2.61501C125.41 2.57964 125.441 2.55054 125.478 2.53042C125.514 2.51031 125.556 2.49984 125.598 2.50001H129.333C129.378 2.50024 129.422 2.51262 129.46 2.53585C129.499 2.55908 129.53 2.5923 129.552 2.63199C129.573 2.67168 129.583 2.71637 129.581 2.76134C129.579 2.80632 129.565 2.84991 129.54 2.88751L126.119 8.03001C124.994 9.60501 124.974 10.4713 126.119 12.045ZM82.4975 12.045L79.1288 17.1113C79.1036 17.149 79.0892 17.1928 79.087 17.2381C79.0849 17.2833 79.095 17.3283 79.1165 17.3683C79.1379 17.4082 79.1698 17.4416 79.2088 17.4648C79.2477 17.488 79.2922 17.5001 79.3375 17.5H83.0088C83.0508 17.5001 83.0922 17.4897 83.1291 17.4696C83.1661 17.4495 83.1973 17.4204 83.22 17.385L86.6125 12.065C86.6209 12.0519 86.628 12.0381 86.6338 12.0238C87.265 10.4475 87.2363 9.57126 86.6338 8.05126C86.6279 8.03731 86.6208 8.02392 86.6125 8.01126L83.2188 2.61751C83.1965 2.58184 83.1655 2.55237 83.1288 2.53183C83.0921 2.51129 83.0508 2.50034 83.0088 2.50001H79.335C79.2899 2.50001 79.2456 2.51224 79.2069 2.53538C79.1681 2.55851 79.1364 2.59171 79.115 2.63144C79.0936 2.67117 79.0833 2.71595 79.0853 2.76103C79.0873 2.80611 79.1015 2.84982 79.1263 2.88751L82.4988 8.03001C83.6075 9.60501 83.6263 10.4713 82.4975 12.045ZM92.4888 12.045L95.9063 17.11C95.9317 17.1476 95.9464 17.1915 95.9488 17.2368C95.9512 17.2822 95.9412 17.3273 95.9199 17.3674C95.8985 17.4075 95.8667 17.4411 95.8277 17.4644C95.7888 17.4878 95.7442 17.5001 95.6988 17.5H91.9675C91.9258 17.5001 91.8847 17.4897 91.8481 17.4698C91.8114 17.45 91.7803 17.4212 91.7575 17.3863L88.3138 12.065C88.3055 12.0519 88.2984 12.0381 88.2925 12.0238C87.6513 10.4475 87.68 9.57126 88.2925 8.05251C88.2983 8.03813 88.3054 8.02432 88.3138 8.01126L91.7575 2.61501C91.7802 2.57962 91.8115 2.55053 91.8484 2.53043C91.8853 2.51033 91.9267 2.49987 91.9688 2.50001H95.7025C95.7476 2.50001 95.7919 2.51224 95.8307 2.53538C95.8694 2.55851 95.9012 2.59171 95.9226 2.63144C95.944 2.67117 95.9542 2.71595 95.9522 2.76103C95.9503 2.80611 95.9361 2.84982 95.9113 2.88751L92.4875 8.03126C91.3625 9.60626 91.3425 10.4725 92.4875 12.0463L92.4888 12.045ZM53.0738 8.82501V17.5H49.5975V2.69251H52.92V5.20876H53.0925C53.4167 4.39882 53.9834 3.70897 54.715 3.23376C55.465 2.74376 56.39 2.50001 57.49 2.50001C58.5075 2.50001 59.395 2.71876 60.15 3.15501C60.9125 3.59251 61.5 4.22501 61.9163 5.05501C62.3388 5.88376 62.5475 6.89001 62.5413 8.07251V17.5H59.065V8.61251C59.065 7.62251 58.8088 6.84751 58.2963 6.28751C57.7913 5.73001 57.09 5.45001 56.1938 5.45001C55.5863 5.45001 55.0438 5.58501 54.5713 5.85501C54.1038 6.11751 53.7363 6.50126 53.4663 7.00251C53.2038 7.50251 53.0725 8.11001 53.0725 8.82376L53.0738 8.82501ZM107.089 11.175V2.50001H110.564V17.3075H107.243V14.7913H107.07C106.746 15.6011 106.179 16.291 105.448 16.7663C104.698 17.2563 103.773 17.5 102.673 17.5C101.654 17.5 100.768 17.2813 100.013 16.845C99.2466 16.4031 98.6312 15.7411 98.2463 14.945C97.8238 14.1163 97.615 13.11 97.6213 11.9275V2.50001H101.096V11.3875C101.096 12.3775 101.354 13.1525 101.866 13.7125C102.371 14.27 103.073 14.55 103.969 14.55C104.576 14.55 105.118 14.415 105.591 14.145C106.059 13.8825 106.426 13.4988 106.695 12.9975C106.958 12.4975 107.089 11.89 107.089 11.1763V11.175Z" fill="black"/>
</g>
<defs>
<clipPath id="clip0_1997_200">
<rect width="130" height="20" fill="white"/>
</clipPath>
</defs>
</svg>
